<?xml version="1.0" encoding="UTF-8" standalone="no"?>
<!DOCTYPE svg PUBLIC "-//W3C//DTD SVG 1.1//EN" "http://www.w3.org/Graphics/SVG/1.1/DTD/svg11.dtd">
<svg version="1.1" xmlns="http://www.w3.org/2000/svg" xmlns:xlink="http://www.w3.org/1999/xlink" preserveAspectRatio="xMidYMid meet" viewBox="34.979227266318134 265.495283476185 225.23978729384842 227.23198925108835" width="225.24" height="227.23"><defs><path d="M149.86 265.5L161.58 448.19L149.35 465.5L136.58 447.89L149.86 265.5Z" id="jdr1edDWz"></path><path d="M149.86 265.5L161.58 448.19L149.35 465.5L149.86 265.5Z" id="d4x8KUFVQO"></path><path d="M82.57 462.95L109.42 437.44L149.22 435.41L182.94 441.77L214.59 467.86L149.08 492.73L82.57 462.95Z" id="c15hMUIa87"></path><path d="M198.82 287.53L173.45 441.18L158.09 452.58L149.22 435.02L198.82 287.53Z" id="b6s05Y6xUI"></path><path d="M198.82 287.53L173.45 441.18L164.7 458.42L149.08 492.67L158.09 452.58L198.82 287.53Z" id="ekOKnxRU6"></path><path d="M115.97 284.15L149.08 436.32L139.01 452.58L124.28 439.53L115.97 284.15Z" id="b4J6YMoiH8"></path><path d="M115.97 284.15L149.08 436.32L149.04 492.67L139.01 452.58L115.97 284.15Z" id="bnHbcEObh"></path><path d="M237.52 330.77L195.27 452.05L179.13 458.02L172.6 441.51L237.52 330.77Z" id="a3474hHP0e"></path><path d="M237.52 330.77L195.27 452.05L149.11 492.73L179.13 458.02L237.52 330.77Z" id="cQEwfGEHh"></path><path d="M72.07 321.7L124.7 438.84L128.75 458.46L117.08 454.27L100.99 446.76L72.07 321.7Z" id="j9FpjlMPj"></path><path d="M72.07 321.7L124.7 438.84L149.04 492.73L117.08 454.27L72.07 321.7Z" id="a2xLbQRvbv"></path><path d="M260.22 387.98L214.38 467.86L199.42 467.37L194.55 452.64L260.22 387.98Z" id="b1N1EoclGt"></path><path d="M260.22 387.98L214.38 467.86L149.11 492.73L199.42 467.37L260.22 387.98Z" id="aDWhboIeE"></path><path d="M34.98 383.95L101.88 447.24L97.9 461.67L82.44 462.95L34.98 383.95Z" id="aa2OElfa2"></path><path d="M34.98 383.95L101.88 447.24L149.04 492.73L97.9 461.67L34.98 383.95Z" id="b2GWrlm2Z9"></path></defs><g><g><g><g><use xlink:href="#jdr1edDWz" opacity="1" fill="#0fb9b1" fill-opacity="1"></use></g><g><use xlink:href="#d4x8KUFVQO" opacity="1" fill="#000000" fill-opacity="0.1"></use></g></g><g><use xlink:href="#c15hMUIa87" opacity="1" fill="#0fb9b1" fill-opacity="1"></use></g><g><g><use xlink:href="#b6s05Y6xUI" opacity="1" fill="#0fb9b1" fill-opacity="1"></use></g><g><use xlink:href="#ekOKnxRU6" opacity="1" fill="#000000" fill-opacity="0.1"></use></g></g><g><g><use xlink:href="#b4J6YMoiH8" opacity="1" fill="#0fb9b1" fill-opacity="1"></use></g><g><use xlink:href="#bnHbcEObh" opacity="1" fill="#000000" fill-opacity="0.1"></use></g></g><g><g><use xlink:href="#a3474hHP0e" opacity="1" fill="#0fb9b1" fill-opacity="1"></use></g><g><use xlink:href="#cQEwfGEHh" opacity="1" fill="#000000" fill-opacity="0.1"></use></g></g><g><g><use xlink:href="#j9FpjlMPj" opacity="1" fill="#0fb9b1" fill-opacity="1"></use></g><g><use xlink:href="#a2xLbQRvbv" opacity="1" fill="#000000" fill-opacity="0.1"></use></g></g><g><g><use xlink:href="#b1N1EoclGt" opacity="1" fill="#0fb9b1" fill-opacity="1"></use></g><g><use xlink:href="#aDWhboIeE" opacity="1" fill="#000000" fill-opacity="0.1"></use></g></g><g><g><use xlink:href="#aa2OElfa2" opacity="1" fill="#0fb9b1" fill-opacity="1"></use></g><g><use xlink:href="#b2GWrlm2Z9" opacity="1" fill="#000000" fill-opacity="0.1"></use></g></g></g></g></svg>