<?xml version="1.0" encoding="UTF-8" standalone="no"?>
<!DOCTYPE svg PUBLIC "-//W3C//DTD SVG 1.1//EN" "http://www.w3.org/Graphics/SVG/1.1/DTD/svg11.dtd">
<svg version="1.1" xmlns="http://www.w3.org/2000/svg" xmlns:xlink="http://www.w3.org/1999/xlink" preserveAspectRatio="xMidYMid meet" viewBox="28.925172240695986 68.34087748674165 255.1857765328349 510.94751388186046" width="255.19" height="510.95"><defs><path d="M28.93 435.23L192.07 457.85L192.07 579.28L28.93 556.66L28.93 435.23Z" id="dCz3IOSUt"></path><path d="M283.23 435.23L191.2 457.85L191.2 579.28L283.23 556.66L283.23 435.23Z" id="d11vd7TrMD"></path><path d="M283.22 435.24L191.19 457.86L191.19 579.29L283.22 556.67L283.22 435.24Z" id="azHFsOjU4"></path><path d="M192.95 458.81L29.8 436.19L121.84 411.98L284.11 435.23L192.95 458.81Z" id="g8ynY1F39g"></path><path d="M192.96 458.8L29.81 436.18L121.84 411.98L284.11 435.23L192.96 458.8Z" id="ag41Dj3DR"></path><path d="M225.57 440.27C224.9 449.1 193.53 451.11 155.57 448.22C117.61 445.32 87.33 441.43 88 432.6C88.67 423.77 120.04 416.14 158.01 419.04C195.97 421.93 226.24 431.44 225.57 440.27Z" id="f3NON09ONU"></path><path d="M183.12 175.46L179.84 202.08L141.86 239.81L93.16 244.18L80.68 250.35L78.94 234.22L91.41 235.95L134.89 221.59L163.55 183.06L183.12 175.46Z" id="b7UB4wo8GC"></path><path d="M183.12 175.46L179.84 202.08L141.86 239.81L93.16 244.18L85.89 247.91L85.89 243.61L89.8 242.36L92.07 238.53L135.42 222.29L163.55 183.06L183.12 175.46Z" id="a5nCFghaD"></path><path d="M148.19 233.75L143.35 238.34L138.44 217.99L165.79 187.33L168.25 182.58L183.39 175.45L198.78 239.06L148.19 233.75Z" id="b6JHQRfcF"></path><path d="M64.93 103.69L73.64 102.76L108.96 434.02L100.25 434.95L64.93 103.69Z" id="b2Cd4uJFqr"></path><path d="M69.29 103.23L73.64 102.77L108.96 434.02L104.61 434.49L69.29 103.23Z" id="c1ncQhVz3f"></path><path d="M64.34 68.34L80.67 112.6L71.48 124.46L58.77 114.62L64.34 68.34Z" id="bNCM87hCz"></path><path d="M80.67 112.6L71.48 124.46L58.77 114.62L80.67 112.6Z" id="c24YR58Y5I"></path><path d="M64.34 68.34L80.67 112.6L71.48 124.46L64.34 68.34Z" id="aAIpmP0zM"></path><path d="M149.62 242.07L140.63 218.63L166.71 190.65L169.91 182.44L177.66 177.67L183.22 175.46L198.04 239.1L189.87 358.87L157.86 376.58L117.77 347.42L149.62 242.07Z" id="a108KvOjh2"></path><path d="M189.87 358.87L157.86 376.58L117.77 347.42L189.87 358.87Z" id="bqkU0fcLO"></path><path d="M149.62 242.18L140.63 218.84L182.06 233.84L149.62 242.18Z" id="a1OCsP1Lkd"></path><path d="M120.66 436.85L122.93 425.49L143.13 419.61L134.93 380.01L139.82 350.8L166.06 354.35L156.67 384.97L157.7 433.24L120.66 436.85Z" id="a1mf2ku9Hj"></path><path d="M120.66 436.85L122.93 425.49L143.13 419.61L134.93 380.01L139.82 350.8L166.06 354.35L156.67 384.97L157.7 433.24L120.66 436.85Z" id="arpFXYYy1"></path><path d="M136.47 442.62L138.48 429.14L157.16 422.2C155.54 406.39 154.53 396.51 154.13 392.56C154.13 392.56 152.1 372.64 152.1 372.64C151.83 369.91 151.14 363.09 150.04 352.17L191.59 356.72L181.57 389.88L175.14 435.83L136.47 442.62Z" id="a1p5cUhPlt"></path><path d="M136.47 442.62L138.48 429.14L157.16 422.2C155.54 406.39 154.53 396.51 154.13 392.56C154.13 392.56 152.1 372.64 152.1 372.64C151.83 369.91 151.14 363.09 150.04 352.17L191.59 356.72L181.57 389.88L175.14 435.83L136.47 442.62Z" id="aLJVb8yHI"></path><path d="M183.11 176.6L199.56 187.53L207.94 227.43L203.15 257.31L189.5 260.18L193.05 241.05L177.97 195.81L183.11 176.6Z" id="bo24IniuU"></path><path d="M173.61 168.12L185.41 162.29L185.41 178.6L174.28 183.4L173.61 168.12Z" id="b4brNNWbOh"></path><path d="M183.21 175.46L199.69 187.56L207.94 227.56L204.89 255.76L191.21 256.83L194.45 239.7L179.84 194.73L183.21 175.46Z" id="bIzuNYGRj"></path><path d="M183.27 175.46L192.27 192.94L201.27 240.09L199.01 257.45L191.21 256.83L194.45 239.7L179.84 194.73L183.27 175.46Z" id="a34dPUvjuG"></path><path d="M247.54 342.28C247.54 395.57 223.91 438.83 194.8 438.83C165.69 438.83 142.06 395.57 142.06 342.28C142.06 288.99 165.69 245.73 194.8 245.73C223.91 245.73 247.54 288.99 247.54 342.28Z" id="cNqyWD53S"></path><path d="M254.47 342.28C254.47 395.57 230.59 438.83 201.19 438.83C171.78 438.83 147.9 395.57 147.9 342.28C147.9 288.99 171.78 245.73 201.19 245.73C230.59 245.73 254.47 288.99 254.47 342.28Z" id="a4O1QSVPHS"></path><path d="M233.22 342.55C233.22 391.84 214.11 431.85 190.56 431.85C167.02 431.85 147.9 391.84 147.9 342.55C147.9 293.26 167.02 253.24 190.56 253.24C214.11 253.24 233.22 293.26 233.22 342.55Z" id="a3jAj8bZeD"></path><path d="M76.49 236.35L87.41 239.95L86.42 248.78L78.17 252.65L76.49 236.35Z" id="b1zCP8SFkQ"></path><path d="M80.27 237.6L87.41 239.95L86.42 248.78L81.95 250.87L80.27 237.6Z" id="cwTt23m7f"></path><path d="M82.22 234.95L93.62 235.64L89.84 240.55L81.28 238.72L82.22 234.95Z" id="a1fxT8edRa"></path><path d="M200.41 143.01C197.74 160.58 185.51 173.32 173.12 171.44C160.74 169.55 147.71 161.75 150.38 144.18C153.06 126.6 170.43 105.86 182.81 107.74C195.2 109.63 203.09 125.43 200.41 143.01Z" id="fdd7uzuxL7"></path><path d="M152.6 88.27C159.94 87.06 169.02 87.68 179.84 90.13C196.08 93.81 210.17 114.73 209.32 134.29C208.76 147.34 204.23 153.74 195.74 153.52L200.93 134.29L162.38 118.7L152.6 88.27Z" id="a1eYrpb4U4"></path><path d="M181.73 110.78C192.04 114.06 200.01 122.54 205.64 136.2L200.11 129.76L193.51 131.29L162.38 118.7C164.97 110.13 171.41 107.49 181.73 110.78Z" id="aCOkIZGlm"></path><path d="M202.35 161.37L212.89 185.62L202.35 200.69L199.69 187.54L185.41 177.11L185.14 168.4L188.78 147.34L193.67 131.2L205.64 136.04L202.35 161.37Z" id="a1cjawdHKK"></path><path d="M202.35 161.37L212.89 185.62L202.35 200.69L199.69 187.54L185.41 177.11L185.14 168.4L188.78 147.34L193.67 131.2L200.07 129.78L205.64 136.04L202.35 161.37Z" id="bgLd7QdNv"></path></defs><g><g><g><g><use xlink:href="#dCz3IOSUt" opacity="1" fill="#4b6584" fill-opacity="1"></use></g><g><g><use xlink:href="#d11vd7TrMD" opacity="1" fill="#4b6584" fill-opacity="1"></use></g><g><use xlink:href="#azHFsOjU4" opacity="1" fill="#000000" fill-opacity="0.1"></use></g></g><g><g><use xlink:href="#g8ynY1F39g" opacity="1" fill="#4b6584" fill-opacity="1"></use></g><g><use xlink:href="#ag41Dj3DR" opacity="1" fill="#000000" fill-opacity="0.2"></use></g></g></g><g><use xlink:href="#f3NON09ONU" opacity="1" fill="#000000" fill-opacity="0.15"></use></g><g><g><use xlink:href="#b7UB4wo8GC" opacity="1" fill="#778ca3" fill-opacity="1"></use></g><g><use xlink:href="#a5nCFghaD" opacity="1" fill="#000000" fill-opacity="0.03"></use></g></g><g><use xlink:href="#b6JHQRfcF" opacity="1" fill="#000000" fill-opacity="0.1"></use></g><g><g><g><use xlink:href="#b2Cd4uJFqr" opacity="1" fill="#778ca3" fill-opacity="1"></use></g><g><use xlink:href="#c1ncQhVz3f" opacity="1" fill="#000000" fill-opacity="0.1"></use></g></g><g><g><use xlink:href="#bNCM87hCz" opacity="1" fill="#778ca3" fill-opacity="1"></use></g><g><use xlink:href="#c24YR58Y5I" opacity="1" fill="#000000" fill-opacity="0.1"></use></g><g><use xlink:href="#aAIpmP0zM" opacity="1" fill="#000000" fill-opacity="0.1"></use></g></g></g><g><g><use xlink:href="#a108KvOjh2" opacity="1" fill="#778ca3" fill-opacity="1"></use></g><g><use xlink:href="#bqkU0fcLO" opacity="1" fill="#000000" fill-opacity="0.2"></use></g><g><use xlink:href="#a1OCsP1Lkd" opacity="1" fill="#000000" fill-opacity="0.1"></use></g></g><g><g><use xlink:href="#a1mf2ku9Hj" opacity="1" fill="#778ca3" fill-opacity="1"></use></g><g><use xlink:href="#arpFXYYy1" opacity="1" fill="#000000" fill-opacity="0.1"></use></g></g><g><g><use xlink:href="#a1p5cUhPlt" opacity="1" fill="#778ca3" fill-opacity="1"></use></g><g><use xlink:href="#aLJVb8yHI" opacity="1" fill="#000000" fill-opacity="0.05"></use></g></g><g><use xlink:href="#bo24IniuU" opacity="1" fill="#000000" fill-opacity="0.15"></use></g><g><use xlink:href="#b4brNNWbOh" opacity="1" fill="#778ca3" fill-opacity="1"></use></g><g><g><use xlink:href="#bIzuNYGRj" opacity="1" fill="#778ca3" fill-opacity="1"></use></g><g><use xlink:href="#a34dPUvjuG" opacity="1" fill="#000000" fill-opacity="0.05"></use></g></g><g><g><use xlink:href="#cNqyWD53S" opacity="1" fill="#000000" fill-opacity="0.1"></use></g><g><use xlink:href="#a4O1QSVPHS" opacity="1" fill="#778ca3" fill-opacity="1"></use></g><g><use xlink:href="#a3jAj8bZeD" opacity="1" fill="#000000" fill-opacity="0.02"></use></g></g><g><g><use xlink:href="#b1zCP8SFkQ" opacity="1" fill="#778ca3" fill-opacity="1"></use></g><g><use xlink:href="#cwTt23m7f" opacity="1" fill="#000000" fill-opacity="0.1"></use></g><g><use xlink:href="#a1fxT8edRa" opacity="1" fill="#778ca3" fill-opacity="1"></use></g></g><g><use xlink:href="#fdd7uzuxL7" opacity="1" fill="#778ca3" fill-opacity="1"></use></g><g><g><use xlink:href="#a1eYrpb4U4" opacity="1" fill="#778ca3" fill-opacity="1"></use></g><g><use xlink:href="#aCOkIZGlm" opacity="1" fill="#000000" fill-opacity="0.1"></use></g></g><g><g><use xlink:href="#a1cjawdHKK" opacity="1" fill="#778ca3" fill-opacity="1"></use></g><g><use xlink:href="#bgLd7QdNv" opacity="1" fill="#000000" fill-opacity="0.25"></use></g></g></g></g></svg>