<?xml version="1.0" encoding="UTF-8" standalone="no"?>
<!DOCTYPE svg PUBLIC "-//W3C//DTD SVG 1.1//EN" "http://www.w3.org/Graphics/SVG/1.1/DTD/svg11.dtd">
<svg version="1.1" xmlns="http://www.w3.org/2000/svg" xmlns:xlink="http://www.w3.org/1999/xlink" preserveAspectRatio="xMidYMid meet" viewBox="0 0 640 640" width="640" height="640"><defs><path d="M25.62 271.98C98.7 149.93 185.1 162.31 320 163.55C454.9 164.79 667.77 -90.32 727.34 42.51C767.06 131.07 749.84 331.42 675.7 643.57L76.57 640C-6.12 476.02 -23.1 353.35 25.62 271.98Z" id="f7lTxgA4ed"></path><path d="M253.23 338.64C283.55 312.47 324.92 298.3 377.32 296.14L380.58 426.64C365.85 427.8 353.79 432.78 344.4 441.57C335.01 450.37 328.28 462.98 324.23 479.41L195.38 453.21C203.62 403.01 222.91 364.82 253.23 338.64Z" id="b4DSiZimp"></path><path d="M770.61 271.98L778.65 403.22L377.65 426.94L376.8 296.1L770.61 271.98Z" id="cdChBnTaE"></path><path d="M196.26 447.83L325.11 474.03L244 865.64L117.64 834.47L196.26 447.83Z" id="a2lg7tAJ"></path><path d="M265.48 436.52C269.97 417.07 278.17 401.35 290.06 389.35C301.95 377.35 318.21 369.16 338.85 364.77L342.23 377.87C324.49 381.1 310.52 387.96 300.33 398.46C290.14 408.96 282.75 423.38 278.17 441.72L265.48 436.52Z" id="b3axGscRMR"></path><path d="M258.58 505.39L238.94 596.02L226.44 593.31L246.08 502.68L258.58 505.39Z" id="d1iG3dijvW"></path><path d="M485.99 362.82L395.17 367.89L394.45 355.12L485.28 350.05L485.99 362.82Z" id="fsJOABkY0"></path><path d="M635.18 354.21L555.39 358.66L554.68 345.89L634.47 341.43L635.18 354.21Z" id="bc5d29lnU"></path><path d="M426.81 495.4L554.53 513.11L554.53 608.17L426.81 590.47L426.81 495.4Z" id="l2MwmLvKXG"></path><path d="M625.89 495.4L553.84 513.11L553.84 608.17L625.89 590.47L625.89 495.4Z" id="aeLSSqeoG"></path><path d="M625.88 495.41L553.83 513.12L553.83 608.18L625.88 590.47L625.88 495.41Z" id="a4nAHmqsev"></path><path d="M555.22 513.86L427.5 496.15L499.54 477.2L626.58 495.4L555.22 513.86Z" id="e1obXfIF66"></path><path d="M555.22 513.86L427.5 496.15L499.55 477.2L626.58 495.4L555.22 513.86Z" id="a3J99U9PyV"></path><path d="M580.75 499.35C580.22 506.26 555.67 507.83 525.95 505.57C496.23 503.3 472.53 500.26 473.05 493.34C473.58 486.43 498.14 480.46 527.86 482.72C557.58 484.99 581.28 492.44 580.75 499.35Z" id="aw75aBiZ2"></path><path d="M547.52 292.04L544.95 312.88L515.22 342.42L477.1 345.83L467.33 350.67L465.96 338.04L475.72 339.39L509.76 328.15L532.2 297.98L547.52 292.04Z" id="c3PqqNJD1"></path><path d="M547.52 292.04L544.95 312.88L515.22 342.42L477.1 345.83L471.4 348.76L471.4 345.39L474.46 344.41L476.24 341.41L510.17 328.7L532.2 297.98L547.52 292.04Z" id="dgasHffbO"></path><path d="M520.18 337.67L516.39 341.26L512.54 325.33L533.95 301.33L535.88 297.61L547.73 292.03L559.78 341.83L520.18 337.67Z" id="b1J4Bbu2DZ"></path><path d="M455 235.85L461.82 235.13L489.46 494.45L482.64 495.18L455 235.85Z" id="bgZ15DUij"></path><path d="M458.41 235.5L461.81 235.13L489.46 494.46L486.05 494.82L458.41 235.5Z" id="cbCsWi8Pr"></path><path d="M454.54 208.18L467.31 242.83L460.12 252.11L450.17 244.41L454.54 208.18Z" id="a6trlcG4gX"></path><path d="M467.31 242.83L460.12 252.11L450.17 244.41L467.31 242.83Z" id="c2ujBBysX3"></path><path d="M454.54 208.18L467.31 242.83L460.12 252.11L454.54 208.18Z" id="c1J5m7BUeu"></path><path d="M521.29 344.18L514.26 325.83L534.67 303.93L537.17 297.5L543.24 293.77L547.59 292.04L559.19 341.86L552.8 435.63L527.75 449.49L496.36 426.66L521.29 344.18Z" id="j4qQXZZsr8"></path><path d="M552.8 435.63L527.75 449.49L496.36 426.66L552.8 435.63Z" id="bgH24Mmxa"></path><path d="M521.29 344.27L514.26 326L546.69 337.74L521.29 344.27Z" id="d4LpDhmbUg"></path><path d="M498.62 496.67L500.4 487.78L516.21 483.17L509.8 452.17L513.62 429.31L534.16 432.08L526.81 456.06L527.62 493.85L498.62 496.67Z" id="a3AL1S1GCj"></path><path d="M498.62 496.67L500.4 487.78L516.21 483.17L509.8 452.17L513.62 429.31L534.16 432.08L526.81 456.06L527.62 493.85L498.62 496.67Z" id="eyZh9Hx0g"></path><path d="M511 501.19L512.57 490.63L527.2 485.2C525.93 472.82 525.14 465.09 524.82 462C524.82 462 523.24 446.4 523.24 446.4C523.02 444.27 522.48 438.92 521.62 430.38L554.15 433.94L546.31 459.9L541.27 495.87L511 501.19Z" id="aMJ0EFW9P"></path><path d="M511 501.19L512.57 490.63L527.2 485.2C525.93 472.82 525.14 465.09 524.82 462C524.82 462 523.24 446.4 523.24 446.4C523.02 444.27 522.48 438.92 521.62 430.38L554.15 433.94L546.31 459.9L541.27 495.87L511 501.19Z" id="d47iOKg2uC"></path><path d="M547.51 292.93L560.39 301.48L566.95 332.73L563.2 356.12L552.51 358.37L555.29 343.38L543.49 307.97L547.51 292.93Z" id="d31IOWSusc"></path><path d="M540.08 286.29L549.31 281.73L549.31 294.5L540.6 298.25L540.08 286.29Z" id="eUi913f0B"></path><path d="M547.59 292.04L560.49 301.51L566.95 332.82L564.56 354.9L553.85 355.74L556.39 342.33L544.95 307.12L547.59 292.04Z" id="a5WgD5s2Z"></path><path d="M547.64 292.04L554.68 305.72L561.73 342.64L559.96 356.23L553.85 355.74L556.39 342.33L544.95 307.12L547.64 292.04Z" id="aiUlPhYE"></path><path d="M597.95 422.63C597.95 464.35 579.45 498.22 556.66 498.22C533.88 498.22 515.38 464.35 515.38 422.63C515.38 380.92 533.88 347.05 556.66 347.05C579.45 347.05 597.95 380.92 597.95 422.63Z" id="b6QQfIMcHv"></path><path d="M603.37 422.63C603.37 464.35 584.68 498.22 561.66 498.22C538.64 498.22 519.95 464.35 519.95 422.63C519.95 380.92 538.64 347.05 561.66 347.05C584.68 347.05 603.37 380.92 603.37 422.63Z" id="a25PI4VIQy"></path><path d="M586.74 422.84C586.74 461.43 571.78 492.76 553.35 492.76C534.91 492.76 519.95 461.43 519.95 422.84C519.95 384.26 534.91 352.93 553.35 352.93C571.78 352.93 586.74 384.26 586.74 422.84Z" id="bqwNZUGCJ"></path><path d="M464.04 339.71L472.59 342.52L471.81 349.44L465.36 352.47L464.04 339.71Z" id="apZtEE73b"></path><path d="M467 340.68L472.59 342.52L471.81 349.44L468.32 351.08L467 340.68Z" id="a1Bsb6wHap"></path><path d="M468.53 338.61L477.46 339.15L474.49 342.99L467.79 341.56L468.53 338.61Z" id="a3puQVJTOF"></path><path d="M561.06 266.63C558.96 280.39 549.39 290.37 539.69 288.89C529.99 287.41 519.8 281.31 521.89 267.55C523.98 253.79 537.58 237.55 547.28 239.03C556.98 240.5 563.15 252.87 561.06 266.63Z" id="iDY60q0Lt"></path><path d="M523.62 223.78C529.37 222.83 536.48 223.32 544.95 225.24C557.66 228.12 568.69 244.49 568.03 259.81C567.59 270.02 564.05 275.04 557.4 274.86L561.46 259.81L531.28 247.61L523.62 223.78Z" id="aVKAylMXJ"></path><path d="M546.43 241.4C554.5 243.97 560.74 250.61 565.14 261.3L560.82 256.26L555.65 257.46L531.28 247.61C533.31 240.89 538.35 238.83 546.43 241.4Z" id="b1L06Of0A"></path><path d="M562.57 281L570.82 299.99L562.57 311.79L560.49 301.49L549.31 293.33L549.1 286.51L551.95 270.02L555.77 257.39L565.14 261.18L562.57 281Z" id="bhvLBt9nJ"></path><path d="M562.57 281L570.82 299.99L562.57 311.79L560.49 301.49L549.31 293.33L549.1 286.51L551.95 270.02L555.77 257.39L560.79 256.28L565.14 261.18L562.57 281Z" id="a3VOrWt8cd"></path><path d="M402.03 396.87L414.25 587.48L401.5 605.54L388.17 587.17L402.03 396.87Z" id="bwmFjQHxr"></path><path d="M402.03 396.87L414.25 587.48L401.5 605.54L402.03 396.87Z" id="a1zbzLUnPl"></path><path d="M331.83 602.88L359.84 576.26L401.36 574.15L436.54 580.78L469.57 608L401.21 633.95L331.83 602.88Z" id="ghKXgepLu"></path><path d="M453.12 419.86L426.64 580.17L410.62 592.06L401.36 573.74L453.12 419.86Z" id="avRUqNJZq"></path><path d="M453.12 419.86L426.64 580.17L417.52 598.15L401.21 633.88L410.62 592.06L453.12 419.86Z" id="a2mEtvaUJ4"></path><path d="M366.67 416.33L401.21 575.1L390.71 592.06L375.34 578.44L366.67 416.33Z" id="b1qTBma1Kq"></path><path d="M366.67 416.33L401.21 575.1L401.18 633.88L390.71 592.06L366.67 416.33Z" id="frn93nCn4"></path><path d="M493.49 464.98L449.41 591.51L432.57 597.74L425.75 580.51L493.49 464.98Z" id="d6W5wxfDl6"></path><path d="M493.49 464.98L449.41 591.51L401.25 633.95L432.57 597.74L493.49 464.98Z" id="h1r8s6ny6d"></path><path d="M320.87 455.5L375.78 577.73L380.01 598.19L367.83 593.82L351.04 585.99L320.87 455.5Z" id="aDUqyKbEX"></path><path d="M320.87 455.5L375.78 577.73L401.18 633.95L367.83 593.82L320.87 455.5Z" id="be0MJ5gJc"></path><path d="M517.17 524.66L469.35 608L453.73 607.49L448.65 592.12L517.17 524.66Z" id="cjTYmxoBz"></path><path d="M517.17 524.66L469.35 608L401.25 633.95L453.73 607.49L517.17 524.66Z" id="eq4is1RZD"></path><path d="M282.17 520.45L351.97 586.49L347.82 601.55L331.68 602.88L282.17 520.45Z" id="l1xmxseyEg"></path><path d="M282.17 520.45L351.97 586.49L401.18 633.95L347.82 601.55L282.17 520.45Z" id="a2BjVVoxWH"></path><path d="M582.1 453.49L608.23 597.44L600.12 612.3L588.36 599.51L582.1 453.49Z" id="bdHX1oTFR"></path><path d="M582.1 453.49L608.23 597.44L600.12 612.3L582.1 453.49Z" id="b10ORUMNnA"></path><path d="M546.88 616.44L565.84 593.71L597.24 588.44L624.6 590.37L652.13 608.17L602.41 633.94L546.88 616.44Z" id="bfx7uePoK"></path><path d="M622.99 466.47L617.01 590.78L605.87 601.24L597.21 588.12L622.99 466.47Z" id="h32iXiExcx"></path><path d="M622.99 466.47L617.01 590.78L611.66 605.27L602.41 633.9L605.87 601.24L622.99 466.47Z" id="d1EqAUOzBa"></path><path d="M556.91 471.42L597.21 589.17L590.72 603L577.83 594L556.91 471.42Z" id="f1qLEhL25e"></path><path d="M556.91 471.42L597.21 589.17L602.38 633.9L590.72 603L556.91 471.42Z" id="e6NHyPsLX"></path><path d="M657.7 497.23L635.33 597.4L623.07 603.62L616.37 591.12L657.7 497.23Z" id="a2nuGJGh7"></path><path d="M657.7 497.23L635.33 597.4L602.44 633.94L623.07 603.62L657.7 497.23Z" id="b6t8R6gnM"></path><path d="M525.53 505.27L578.1 593.41L583.12 608.61L573.47 606.36L560.01 601.89L525.53 505.27Z" id="c1oP1ikTcS"></path><path d="M525.53 505.27L578.1 593.41L602.38 633.95L573.47 606.36L525.53 505.27Z" id="bi6Rumk9O"></path><path d="M680.99 540.55L651.96 608.19L640.04 609.18L634.81 597.93L680.99 540.55Z" id="a2LAGwJnr7"></path><path d="M680.99 540.55L651.96 608.19L602.44 633.94L640.04 609.18L680.99 540.55Z" id="j2e46GE0yV"></path><path d="M501.82 558.11L560.76 602.18L558.93 614.01L546.77 616.45L501.82 558.11Z" id="b6juYTtd4O"></path><path d="M501.82 558.11L560.76 602.18L602.38 633.95L558.93 614.01L501.82 558.11Z" id="b3Q5ymBJn"></path></defs><g><g><g><use xlink:href="#f7lTxgA4ed" opacity="1" fill="#c7e5fb" fill-opacity="1"></use></g><g><g><g><use xlink:href="#b4DSiZimp" opacity="1" fill="#a5b1c2" fill-opacity="1"></use></g><g><use xlink:href="#cdChBnTaE" opacity="1" fill="#a5b1c2" fill-opacity="1"></use></g><g><use xlink:href="#a2lg7tAJ" opacity="1" fill="#a5b1c2" fill-opacity="1"></use></g></g><g><g><use xlink:href="#b3axGscRMR" opacity="1" fill="#d1d8e0" fill-opacity="0.6"></use></g><g><use xlink:href="#d1iG3dijvW" opacity="1" fill="#d1d8e0" fill-opacity="0.6"></use></g><g><use xlink:href="#fsJOABkY0" opacity="1" fill="#d1d8e0" fill-opacity="0.6"></use></g><g><use xlink:href="#bc5d29lnU" opacity="1" fill="#d1d8e0" fill-opacity="0.6"></use></g></g></g><g><g><g><use xlink:href="#l2MwmLvKXG" opacity="1" fill="#4b6584" fill-opacity="1"></use></g><g><g><use xlink:href="#aeLSSqeoG" opacity="1" fill="#4b6584" fill-opacity="1"></use></g><g><use xlink:href="#a4nAHmqsev" opacity="1" fill="#000000" fill-opacity="0.1"></use></g></g><g><g><use xlink:href="#e1obXfIF66" opacity="1" fill="#4b6584" fill-opacity="1"></use></g><g><use xlink:href="#a3J99U9PyV" opacity="1" fill="#000000" fill-opacity="0.2"></use></g></g></g><g><use xlink:href="#aw75aBiZ2" opacity="1" fill="#000000" fill-opacity="0.15"></use></g><g><g><use xlink:href="#c3PqqNJD1" opacity="1" fill="#778ca3" fill-opacity="1"></use></g><g><use xlink:href="#dgasHffbO" opacity="1" fill="#000000" fill-opacity="0.03"></use></g></g><g><use xlink:href="#b1J4Bbu2DZ" opacity="1" fill="#000000" fill-opacity="0.1"></use></g><g><g><g><use xlink:href="#bgZ15DUij" opacity="1" fill="#778ca3" fill-opacity="1"></use></g><g><use xlink:href="#cbCsWi8Pr" opacity="1" fill="#000000" fill-opacity="0.1"></use></g></g><g><g><use xlink:href="#a6trlcG4gX" opacity="1" fill="#778ca3" fill-opacity="1"></use></g><g><use xlink:href="#c2ujBBysX3" opacity="1" fill="#000000" fill-opacity="0.1"></use></g><g><use xlink:href="#c1J5m7BUeu" opacity="1" fill="#000000" fill-opacity="0.1"></use></g></g></g><g><g><use xlink:href="#j4qQXZZsr8" opacity="1" fill="#778ca3" fill-opacity="1"></use></g><g><use xlink:href="#bgH24Mmxa" opacity="1" fill="#000000" fill-opacity="0.2"></use></g><g><use xlink:href="#d4LpDhmbUg" opacity="1" fill="#000000" fill-opacity="0.1"></use></g></g><g><g><use xlink:href="#a3AL1S1GCj" opacity="1" fill="#778ca3" fill-opacity="1"></use></g><g><use xlink:href="#eyZh9Hx0g" opacity="1" fill="#000000" fill-opacity="0.1"></use></g></g><g><g><use xlink:href="#aMJ0EFW9P" opacity="1" fill="#778ca3" fill-opacity="1"></use></g><g><use xlink:href="#d47iOKg2uC" opacity="1" fill="#000000" fill-opacity="0.05"></use></g></g><g><use xlink:href="#d31IOWSusc" opacity="1" fill="#000000" fill-opacity="0.15"></use></g><g><use xlink:href="#eUi913f0B" opacity="1" fill="#778ca3" fill-opacity="1"></use></g><g><g><use xlink:href="#a5WgD5s2Z" opacity="1" fill="#778ca3" fill-opacity="1"></use></g><g><use xlink:href="#aiUlPhYE" opacity="1" fill="#000000" fill-opacity="0.05"></use></g></g><g><g><use xlink:href="#b6QQfIMcHv" opacity="1" fill="#000000" fill-opacity="0.1"></use></g><g><use xlink:href="#a25PI4VIQy" opacity="1" fill="#778ca3" fill-opacity="1"></use></g><g><use xlink:href="#bqwNZUGCJ" opacity="1" fill="#000000" fill-opacity="0.02"></use></g></g><g><g><use xlink:href="#apZtEE73b" opacity="1" fill="#778ca3" fill-opacity="1"></use></g><g><use xlink:href="#a1Bsb6wHap" opacity="1" fill="#000000" fill-opacity="0.1"></use></g><g><use xlink:href="#a3puQVJTOF" opacity="1" fill="#778ca3" fill-opacity="1"></use></g></g><g><use xlink:href="#iDY60q0Lt" opacity="1" fill="#778ca3" fill-opacity="1"></use></g><g><g><use xlink:href="#aVKAylMXJ" opacity="1" fill="#778ca3" fill-opacity="1"></use></g><g><use xlink:href="#b1L06Of0A" opacity="1" fill="#000000" fill-opacity="0.1"></use></g></g><g><g><use xlink:href="#bhvLBt9nJ" opacity="1" fill="#778ca3" fill-opacity="1"></use></g><g><use xlink:href="#a3VOrWt8cd" opacity="1" fill="#000000" fill-opacity="0.25"></use></g></g></g><g><g><g><use xlink:href="#bwmFjQHxr" opacity="1" fill="#0fb9b1" fill-opacity="1"></use></g><g><use xlink:href="#a1zbzLUnPl" opacity="1" fill="#000000" fill-opacity="0.1"></use></g></g><g><use xlink:href="#ghKXgepLu" opacity="1" fill="#0fb9b1" fill-opacity="1"></use></g><g><g><use xlink:href="#avRUqNJZq" opacity="1" fill="#0fb9b1" fill-opacity="1"></use></g><g><use xlink:href="#a2mEtvaUJ4" opacity="1" fill="#000000" fill-opacity="0.1"></use></g></g><g><g><use xlink:href="#b1qTBma1Kq" opacity="1" fill="#0fb9b1" fill-opacity="1"></use></g><g><use xlink:href="#frn93nCn4" opacity="1" fill="#000000" fill-opacity="0.1"></use></g></g><g><g><use xlink:href="#d6W5wxfDl6" opacity="1" fill="#0fb9b1" fill-opacity="1"></use></g><g><use xlink:href="#h1r8s6ny6d" opacity="1" fill="#000000" fill-opacity="0.1"></use></g></g><g><g><use xlink:href="#aDUqyKbEX" opacity="1" fill="#0fb9b1" fill-opacity="1"></use></g><g><use xlink:href="#be0MJ5gJc" opacity="1" fill="#000000" fill-opacity="0.1"></use></g></g><g><g><use xlink:href="#cjTYmxoBz" opacity="1" fill="#0fb9b1" fill-opacity="1"></use></g><g><use xlink:href="#eq4is1RZD" opacity="1" fill="#000000" fill-opacity="0.1"></use></g></g><g><g><use xlink:href="#l1xmxseyEg" opacity="1" fill="#0fb9b1" fill-opacity="1"></use></g><g><use xlink:href="#a2BjVVoxWH" opacity="1" fill="#000000" fill-opacity="0.1"></use></g></g></g><g><g><g><use xlink:href="#bdHX1oTFR" opacity="1" fill="#0fb9b1" fill-opacity="1"></use></g><g><use xlink:href="#b10ORUMNnA" opacity="1" fill="#000000" fill-opacity="0.1"></use></g></g><g><use xlink:href="#bfx7uePoK" opacity="1" fill="#0fb9b1" fill-opacity="1"></use></g><g><g><use xlink:href="#h32iXiExcx" opacity="1" fill="#0fb9b1" fill-opacity="1"></use></g><g><use xlink:href="#d1EqAUOzBa" opacity="1" fill="#000000" fill-opacity="0.1"></use></g></g><g><g><use xlink:href="#f1qLEhL25e" opacity="1" fill="#0fb9b1" fill-opacity="1"></use></g><g><use xlink:href="#e6NHyPsLX" opacity="1" fill="#000000" fill-opacity="0.1"></use></g></g><g><g><use xlink:href="#a2nuGJGh7" opacity="1" fill="#0fb9b1" fill-opacity="1"></use></g><g><use xlink:href="#b6t8R6gnM" opacity="1" fill="#000000" fill-opacity="0.1"></use></g></g><g><g><use xlink:href="#c1oP1ikTcS" opacity="1" fill="#0fb9b1" fill-opacity="1"></use></g><g><use xlink:href="#bi6Rumk9O" opacity="1" fill="#000000" fill-opacity="0.1"></use></g></g><g><g><use xlink:href="#a2LAGwJnr7" opacity="1" fill="#0fb9b1" fill-opacity="1"></use></g><g><use xlink:href="#j2e46GE0yV" opacity="1" fill="#000000" fill-opacity="0.1"></use></g></g><g><g><use xlink:href="#b6juYTtd4O" opacity="1" fill="#0fb9b1" fill-opacity="1"></use></g><g><use xlink:href="#b3Q5ymBJn" opacity="1" fill="#000000" fill-opacity="0.1"></use></g></g></g></g></g></svg>